<svg xmlns="http://www.w3.org/2000/svg" viewBox="0 0 1200 800" role="img" aria-labelledby="title desc">
  <title id="title">Rescue team coordination</title>
  <desc id="desc">Emergency crew working with satellite-enabled equipment</desc>
  <defs>
    <linearGradient id="bg" x1="0" y1="0" x2="1" y2="1">
      <stop offset="0%" stop-color="#0f172a" />
      <stop offset="50%" stop-color="#1e293b" />
      <stop offset="100%" stop-color="#1f2937" />
    </linearGradient>
  </defs>
  <rect width="1200" height="800" fill="url(#bg)" />
  <path d="M0 600 Q200 540 400 560 T800 540 T1200 600 V800 H0 Z" fill="#1d4ed8" opacity="0.35" />
  <g transform="translate(220 430)">
    <rect x="-120" y="-60" width="240" height="160" rx="18" fill="#1f2937" stroke="#38bdf8" stroke-width="4" />
    <rect x="-90" y="-20" width="180" height="90" rx="12" fill="#0ea5e9" opacity="0.35" />
    <circle cx="-70" cy="40" r="10" fill="#38bdf8" />
    <circle cx="70" cy="40" r="10" fill="#38bdf8" />
  </g>
  <g transform="translate(680 430)">
    <rect x="-120" y="-60" width="240" height="160" rx="18" fill="#1f2937" stroke="#38bdf8" stroke-width="4" />
    <rect x="-90" y="-20" width="180" height="90" rx="12" fill="#0ea5e9" opacity="0.35" />
    <rect x="-100" y="-70" width="80" height="20" rx="6" fill="#38bdf8" opacity="0.7" />
    <rect x="20" y="-70" width="80" height="20" rx="6" fill="#38bdf8" opacity="0.7" />
  </g>
  <g stroke="#38bdf8" stroke-width="4" opacity="0.7">
    <path d="M360 240 Q600 180 840 240" fill="none" />
    <path d="M360 170 Q600 110 840 170" fill="none" />
  </g>
  <g fill="#38bdf8" opacity="0.8">
    <circle cx="360" cy="240" r="12" />
    <circle cx="840" cy="240" r="12" />
    <circle cx="600" cy="170" r="14" />
  </g>
  <g stroke="#38bdf8" stroke-width="2" stroke-dasharray="6 5" opacity="0.6">
    <path d="M360 240 Q460 320 540 420" />
    <path d="M840 240 Q740 320 660 420" />
    <path d="M600 170 L600 420" />
  </g>
</svg>
